<?xml version="1.0" encoding="UTF-8" standalone="no"?>
<svg
   height="100pt"
   viewBox="0 0 100.19653 365"
   width="100pt"
   version="1.1"
   id="svg8"
   sodipodi:docname="close-icon.svg"
   inkscape:version="1.1 (c68e22c387, 2021-05-23)"
   xmlns:inkscape="http://www.inkscape.org/namespaces/inkscape"
   xmlns:sodipodi="http://sodipodi.sourceforge.net/DTD/sodipodi-0.dtd"
   xmlns="http://www.w3.org/2000/svg"
   xmlns:svg="http://www.w3.org/2000/svg">
  <defs
     id="defs12" />
  <sodipodi:namedview
     id="namedview10"
     pagecolor="#ffffff"
     bordercolor="#666666"
     borderopacity="1.0"
     inkscape:pageshadow="2"
     inkscape:pageopacity="0.0"
     inkscape:pagecheckerboard="0"
     inkscape:document-units="pt"
     showgrid="false"
     width="100pt"
     inkscape:snap-bbox="true"
     inkscape:snap-bbox-midpoints="true"
     inkscape:snap-bbox-edge-midpoints="true"
     inkscape:bbox-nodes="true"
     inkscape:bbox-paths="true"
     inkscape:object-paths="true"
     inkscape:snap-intersection-paths="true"
     inkscape:snap-smooth-nodes="true"
     inkscape:snap-midpoints="true"
     inkscape:snap-object-midpoints="true"
     inkscape:snap-center="true"
     inkscape:snap-text-baseline="true"
     inkscape:snap-page="true"
     inkscape:zoom="2.2006849"
     inkscape:cx="243.33333"
     inkscape:cy="66.570184"
     inkscape:window-width="1920"
     inkscape:window-height="1027"
     inkscape:window-x="-8"
     inkscape:window-y="-8"
     inkscape:window-maximized="1"
     inkscape:current-layer="svg8" />
  <g
     fill="#f44336"
     id="g6"
     transform="translate(-132.40173,-0.359375)">
    <path
       d="M 356.33984,296.34766 69.726562,9.734375 c -12.5,-12.5 -32.765624,-12.5 -45.246093,0 L 9.375,24.816406 c -12.5,12.503906 -12.5,32.769532 0,45.25 L 295.98828,356.67969 c 12.50391,12.5 32.76953,12.5 45.25,0 l 15.08203,-15.08203 c 12.52344,-12.48047 12.52344,-32.75 0.0195,-45.25 z m 0,0"
       id="path2" />
    <path
       d="M 295.98828,9.734375 9.375,296.34766 c -12.5,12.5 -12.5,32.76953 0,45.25 l 15.082031,15.08203 c 12.503907,12.5 32.769531,12.5 45.25,0 L 356.33984,70.085938 c 12.50391,-12.5 12.50391,-32.765626 0,-45.246094 L 341.25781,9.757812 c -12.5,-12.523437 -32.76562,-12.523437 -45.26953,-0.023437 z m 0,0"
       id="path4" />
  </g>
</svg>
