<svg width="39" height="39" viewBox="0 0 39 39" fill="none" xmlns="http://www.w3.org/2000/svg">
<g clip-path="url(#clip0)">
<path d="M19.16 38.32C29.7418 38.32 38.32 29.7418 38.32 19.16C38.32 8.57822 29.7418 0 19.16 0C8.57822 0 0 8.57822 0 19.16C0 29.7418 8.57822 38.32 19.16 38.32Z" fill="#FC6F58"/>
<path d="M20.5501 17.1094L16.758 13.3456L14.1662 15.637L18.9979 20.4406L16.8591 25.0306L12.7733 31.9334L19.16 38.32C29.7417 38.32 38.32 29.7417 38.32 19.16L25.5466 6.38666L20.5501 17.1094Z" fill="#F1543F"/>
<path d="M25.1596 13.2168V7.16083H13.1604V13.2168C13.1604 14.4225 13.7929 15.5399 14.827 16.1602C15.8609 16.7806 16.4936 17.8979 16.4936 19.1036V19.2162C16.4936 20.4219 15.861 21.5393 14.827 22.1596C13.793 22.78 13.1604 23.8974 13.1604 25.1031V31.1591H25.1595V25.1031C25.1595 23.8974 24.527 22.78 23.4929 22.1597C22.459 21.5394 21.8263 20.422 21.8263 19.2164V19.1037C21.8263 17.898 22.4589 16.7806 23.4929 16.1603C24.527 15.5399 25.1596 14.4225 25.1596 13.2168Z" fill="#E6F3FF"/>
<path d="M23.493 16.1602C24.5269 15.5398 25.1596 14.4225 25.1596 13.2168V7.16083H19.117V31.1592H25.1596V25.1032C25.1596 23.8975 24.527 22.7801 23.493 22.1598C22.4591 21.5394 21.8264 20.4221 21.8264 19.2164V19.1036C21.8265 17.8979 22.4591 16.7806 23.493 16.1602Z" fill="#CFDBE6"/>
<path d="M19.5636 25.1524L19.4825 25.1119V22.9901L20.2068 22.0296C20.5694 21.5489 20.7655 20.9631 20.7655 20.361V19.1093C20.7655 18.0267 21.1464 17.0235 21.7691 16.4665C22.3917 15.9095 22.7727 14.9064 22.7727 13.8237H15.5474C15.5474 14.9063 15.9282 15.9095 16.5509 16.4665C17.1735 17.0235 17.5545 18.0267 17.5545 19.1093V20.361C17.5545 20.9631 17.7506 21.549 18.1132 22.0296L18.8376 22.9901V25.1119L18.7565 25.1524C17.0207 26.0203 15.9242 27.7945 15.9242 29.7351V29.8044H18.8376V31.1269H19.4827V29.8044H22.3961V29.7351C22.3959 27.7945 21.2995 26.0203 19.5636 25.1524Z" fill="#FFD15D"/>
<path d="M19.5636 25.1524L19.4825 25.1119V22.9901L20.2069 22.0296C20.5694 21.5489 20.7656 20.9631 20.7656 20.361V19.1093C20.7656 18.0267 21.1464 17.0235 21.7691 16.4665C22.3918 15.9096 22.7727 14.9064 22.7727 13.8237H19.1171V31.1269H19.4827V29.8044H22.396V29.7351C22.396 27.7945 21.2995 26.0203 19.5636 25.1524Z" fill="#F9B54C"/>
<path d="M25.5467 29.8044H12.7733V31.9333H25.5467V29.8044Z" fill="#324A5E"/>
<path d="M25.5467 6.38666H12.7733V8.51551H25.5467V6.38666Z" fill="#324A5E"/>
<path d="M25.547 29.8044H19.1174V31.9333H25.547V29.8044Z" fill="#2B3B4E"/>
<path d="M25.547 6.38666H19.1174V8.51551H25.547V6.38666Z" fill="#2B3B4E"/>
</g>
<defs>
<clipPath id="clip0">
<rect width="38.32" height="38.32" fill="white"/>
</clipPath>
</defs>
</svg>
